{"title":"Ashlynn Brooke - Fresh Outta High School Girl Hot Shots=MTR","uid":7074368,"size":214427443,"categoryP":"porn","categoryS":"other","magnet":"?xt=urn:btih:7b5da04ee069c57247e61213f026cee1a16e72bf&amp;dn=Ashlynn+Brooke+-+Fresh+Outta+High+School+Girl+Hot+Shots%3DMTR&amp;tr=udp%3A%2F%2Ftracker.openbittorrent.com%3A80&amp;tr=udp%3A%2F%2Fopen.demonii.com%3A1337&amp;tr=udp%3A%2F%2Ftracker.coppersurfer.tk%3A6969&amp;tr=udp%3A%2F%2Fexodus.desync.com%3A6969","seeders":0,"leechers":1,"uploader":"Devdeep","files":3,"time":1330783644,"description":"\nComplete name                    :Ashlynn Brooke - Fresh Outta High School 5.mp4\nFormat                           : MPEG-4\nFormat profile                   : Base Media\nCodec ID                         : isom\nFile size                        : 204 MiB\nDuration                         : 24mn 38s\nOverall bit rate                 : 1 160 Kbps\nMovie name                       : Ashlynn Brooke - Fresh Outta High School 5\nEncoded date                     : UTC 2009-07-24 04:52:31\nTagged date                      : UTC 2009-07-24 04:52:31\nWriting application              : Lavf52.31.0\n\nVideo\nID                               : 1\nFormat                           : AVC\nFormat/Info                      : Advanced Video Codec\nFormat profile                   : &lt;a class=&quot;__cf_email__&quot; href=&quot;/cdn-cgi/l/email-protection&quot; data-cfemail=&quot;df9dbeacbab3b6b1ba9f93edf1ee&quot;&gt;[email&amp;#160;protected]&lt;/a&gt;&lt;script cf-hash='f9e31' type=&quot;text/javascript&quot;&gt;\n/* &lt;![CDATA[ */!function(){try{var t=&quot;currentScript&quot;in document?document.currentScript:function(){for(var t=document.getElementsByTagName(&quot;script&quot;),e=t.length;e--;)if(t[e].getAttribute(&quot;cf-hash&quot;))return t[e]}();if(t&amp;&amp;t.previousSibling){var e,r,n,i,c=t.previousSibling,a=c.getAttribute(&quot;data-cfemail&quot;);if(a){for(e=&quot;&quot;,r=parseInt(a.substr(0,2),16),n=2;a.length-n;n+=2)i=parseInt(a.substr(n,2),16)^r,e+=String.fromCharCode(i);e=document.createTextNode(e),c.parentNode.replaceChild(e,c)}}}catch(u){}}();/* ]]&gt; */&lt;/script&gt;\nFormat settings, CABAC           : No\nFormat settings, ReFrames        : 3 frames\nCodec ID                         : avc1\nCodec ID/Info                    : Advanced Video Coding\nDuration                         : 24mn 38s\nBit rate mode                    : Variable\nBit rate                         : 1 027 Kbps\nWidth                            : 480 pixels\nHeight                           : 270 pixels\nDisplay aspect ratio             : 16:9\nFrame rate mode                  : Variable\nFrame rate                       : 29.970 fps\nMinimum frame rate               : 14.985 fps\nMaximum frame rate               : 29.970 fps\nColor space                      : YUV\nChroma subsampling               : 4:2:0\nBit depth                        : 8 bits\nScan type                        : Progressive\nBits/(Pixel*Frame)               : 0.265\nStream size                      : 181 MiB (89%)\nEncoded date                     : UTC 2009-07-24 04:52:31\nTagged date                      : UTC 2009-07-24 04:52:31\n\nAudio\nID                               : 2\nFormat                           : AAC\nFormat/Info                      : Advanced Audio Codec\nFormat profile                   : LC\nCodec ID                         : 40\nDuration                         : 24mn 38s\nBit rate mode                    : Variable\nBit rate                         : 128 Kbps\nChannel(s)                       : 2 channels\nChannel positions                : Front: L R\nSampling rate                    : 48.0 KHz\nCompression mode                 : Lossy\nStream size                      : 22.6 MiB (11%)\nEncoded date                     : UTC 2009-07-24 04:52:31\nTagged date                      : UTC 2009-07-24 04:52:31\n\n","torrent":{"xt":"urn:btih:7b5da04ee069c57247e61213f026cee1a16e72bf","amp;dn":"Ashlynn+Brooke+-+Fresh+Outta+High+School+Girl+Hot+Shots%3DMTR","amp;tr":["udp%3A%2F%2Ftracker.openbittorrent.com%3A80","udp%3A%2F%2Fopen.demonii.com%3A1337","udp%3A%2F%2Ftracker.coppersurfer.tk%3A6969","udp%3A%2F%2Fexodus.desync.com%3A6969"],"infoHash":"7b5da04ee069c57247e61213f026cee1a16e72bf","infoHashBuffer":{"type":"Buffer","data":[123,93,160,78,224,105,197,114,71,230,18,19,240,38,206,225,161,110,114,191]},"announce":[],"urlList":[]}}